<?xml version="1.0" encoding="UTF-8"?>
<svg version="1.1" xmlns="http://www.w3.org/2000/svg" width="468" height="295">
<path d="M0 0 C154.44 0 308.88 0 468 0 C466.87539187 7.87225691 466.87539187 7.87225691 464.11328125 11.390625 C463.21101807 12.56359131 463.21101807 12.56359131 462.29052734 13.76025391 C461.63777832 14.58187012 460.9850293 15.40348633 460.3125 16.25 C458.93532306 18.03317885 457.55904178 19.81704973 456.18359375 21.6015625 C455.13341064 22.95169434 455.13341064 22.95169434 454.06201172 24.32910156 C450.93450942 28.38011685 447.90142297 32.49821539 444.875 36.625 C444.30273682 37.40286865 443.73047363 38.1807373 443.14086914 38.98217773 C435.34289417 49.59372999 427.64671332 60.27905925 420 71 C411.17695366 83.3701979 402.26176631 95.66976652 393.23364258 107.89111328 C387.09126792 116.2143588 381.04233081 124.60399195 375 133 C367.79877656 143.0063257 360.55744101 152.97939506 353.23071289 162.89428711 C349.28592959 168.23835616 345.38037592 173.60901545 341.5 179 C337.03979047 185.19654414 332.53740365 191.35976023 328 197.5 C321.26446941 206.61748366 314.62136363 215.79940769 308 225 C300.80187187 235.00202466 293.56565726 244.97235401 286.23950195 254.88110352 C282.20120704 260.34956936 278.2155508 265.85362928 274.25 271.375 C260.48424777 290.51575223 260.48424777 290.51575223 256 295 C254.11012352 295.24839699 254.11012352 295.24839699 251.75585747 295.24609566 C250.85984447 295.2500774 249.96383148 295.25405914 249.04066658 295.25816154 C248.05069113 295.25233622 247.06071568 295.24651089 246.04074097 295.24050903 C244.47389557 295.24307709 244.47389557 295.24307709 242.87539673 295.24569702 C239.34117958 295.24902466 235.80714924 295.23793241 232.27294922 295.22705078 C229.70955473 295.22643853 227.14615991 295.22670437 224.58276558 295.2277813 C218.39568453 295.22818822 212.20867324 295.21959387 206.02160729 295.20677864 C198.86800024 295.19240368 191.71441358 295.19079052 184.56079102 295.18920898 C165.66551814 295.17869946 146.77025821 295.15077736 127.875 295.125 C85.67625 295.08375 43.4775 295.0425 0 295 C0 197.65 0 100.3 0 0 Z " fill="#FEBD01" transform="translate(0,0)"/>
<path d="M0 0 C0.89460938 0.29003906 1.78921875 0.58007812 2.7109375 0.87890625 C11.42441655 4.0058154 17.69024421 9.37475642 24 16 C21.76508068 21.02734434 18.00485011 24.440762 14.1875 28.3125 C13.11918945 29.44268555 13.11918945 29.44268555 12.02929688 30.59570312 C11.33255859 31.30275391 10.63582031 32.00980469 9.91796875 32.73828125 C9.28656982 33.38837158 8.6551709 34.03846191 8.00463867 34.70825195 C6 36 6 36 3.37744141 35.79907227 C0.59809981 34.86491894 -0.74623545 33.68691452 -2.8125 31.625 C-11.98904958 23.19156084 -24.12671596 23.43936819 -35.98095703 23.86376953 C-43.2963142 24.35735711 -48.9610491 26.70910155 -54 32 C-56.62846853 36.30113032 -56.52728263 41.10252746 -56 46 C-54.99496035 49.15869604 -53.89261206 50.45508095 -51.07519531 52.17504883 C-43.08396846 56.28334217 -34.80707538 58.53670197 -26.1640625 60.87304688 C-13.3791881 64.4687928 -0.10996308 69.66488399 7.47265625 81.25 C13.01554113 92.05763216 12.52180633 105.57722705 8.9375 117 C3.49809704 131.15463683 -4.77149716 141.33767781 -18.703125 147.6796875 C-30.42021799 152.37207782 -41.14459177 153.39778793 -53.6875 153.5 C-54.99372314 153.51853027 -56.29994629 153.53706055 -57.64575195 153.55615234 C-73.226181 153.45579214 -88.77194414 148.73198784 -100 137.5625 C-109 128.03003247 -109 128.03003247 -109 123 C-107.671875 121.66015625 -107.671875 121.66015625 -105.75 120.0625 C-103.06297739 117.80252206 -100.45710548 115.50220367 -97.9375 113.05859375 C-97.4105957 112.55384521 -96.88369141 112.04909668 -96.34082031 111.52905273 C-95.28938109 110.51843827 -94.24681841 109.49849782 -93.21386719 108.46899414 C-89.58577312 105.01991 -89.58577312 105.01991 -86.81640625 104.92578125 C-84.44136253 106.330377 -83.5712988 107.806728 -82.1875 110.1875 C-77.77566452 117.15355602 -71.89538401 122.32534222 -64 125 C-59.68696471 125.87252208 -55.37012396 126.49370515 -51 127 C-53.15359624 133.28132238 -56.11682232 136.92255056 -62.1328125 139.87890625 C-62.74898437 140.16636719 -63.36515625 140.45382813 -64 140.75 C-64.61617187 141.05292969 -65.23234375 141.35585937 -65.8671875 141.66796875 C-68.85951464 143.1127619 -71.72595088 144.37793067 -75 145 C-74.67 145.99 -74.34 146.98 -74 148 C-62.69298682 148.28585146 -54.50954016 147.21921673 -44.1015625 142.8046875 C-42 142 -42 142 -40 142 C-40 141.34 -40 140.68 -40 140 C-38.7315625 139.195625 -38.7315625 139.195625 -37.4375 138.375 C-29.51462713 133.26707725 -23.8247159 124.90183354 -21 116 C-20.52953347 113.03482277 -20.36140256 110.12489666 -20.3125 107.125 C-20.29324463 106.41158447 -20.27398926 105.69816895 -20.25415039 104.96313477 C-20.35175474 100.60875434 -21.24504966 97.49537817 -24.29174805 94.30249023 C-31.45870447 88.83790363 -41.91105832 87.14392491 -50.43359375 84.73242188 C-64.53851224 80.59561021 -75.69607796 74.53349169 -83.58984375 61.84375 C-88.64797174 51.64342542 -88.44014751 40.25968307 -84.9375 29.625 C-79.99872923 17.34032649 -70.65752963 7.59055023 -58.61328125 2.02734375 C-41.09366097 -4.8600406 -17.91727745 -6.15741246 0 0 Z " fill="#050201" transform="translate(128,81)"/>
<path d="M0 0 C-0.01160156 1.29035156 -0.02320313 2.58070312 -0.03515625 3.91015625 C-0.0445412 5.62760271 -0.05364064 7.34505075 -0.0625 9.0625 C-0.07506836 10.33383789 -0.07506836 10.33383789 -0.08789062 11.63085938 C-0.10683006 16.5361722 0.16673655 21.16444755 1 26 C0.31292969 26.35191406 -0.37414062 26.70382813 -1.08203125 27.06640625 C-7.12907418 30.18495499 -7.12907418 30.18495499 -11.125 35.4375 C-12.35361148 40.4397039 -12.51775944 44.15085914 -11.125 49.125 C-4.78756397 57.69917816 8.76334314 59.35164754 18.48046875 61.87304688 C30.60694779 65.15316006 43.9414799 69.67613323 50.78515625 80.9375 C55.93857005 90.87883727 57.91393223 100.93523061 54.6875 111.9140625 C54.460625 112.60242188 54.23375 113.29078125 54 114 C53.731875 114.85335937 53.46375 115.70671875 53.1875 116.5859375 C48.3353264 131.02115395 40.65816763 141.09080963 27 148 C9.13110514 155.99122131 -16.6292081 157.90768955 -35.16796875 151.26171875 C-47.50928837 145.76344808 -58.00271212 138.75660967 -64.3125 126.4375 C-63.75423124 122.0830037 -60.18646872 119.76750709 -57 117 C-55.95585937 116.07767578 -55.95585937 116.07767578 -54.890625 115.13671875 C-53.52958962 113.94197529 -52.16131503 112.75541691 -50.78515625 111.578125 C-48.85513837 109.92562315 -48.85513837 109.92562315 -46.75 107.5625 C-45 106 -45 106 -41 106 C-39.61328125 107.94140625 -39.61328125 107.94140625 -38.3125 110.5625 C-33.28299073 119.47443748 -25.66938273 124.11259101 -16 127 C-12.31254307 127.54254685 -8.72276519 127.62180241 -5 127.5625 C-3.54980469 127.5471521 -3.54980469 127.5471521 -2.0703125 127.53149414 C6.08124505 127.28780344 11.86451189 125.92914359 17.87890625 120.21484375 C22.03638437 115.67152079 23.14918559 112.26177168 23.1875 106.0625 C23.20167969 105.02222656 23.21585937 103.98195313 23.23046875 102.91015625 C22.99545795 99.94264702 22.71337741 98.41025568 21 96 C13.96699641 90.81559222 5.21286663 88.80159425 -3.0625 86.5 C-16.81760281 82.64643442 -29.96478266 77.6416277 -37.921875 64.9296875 C-43.32742266 54.45322132 -44.63339439 44.88920146 -41.375 33.4375 C-36.74798648 19.75128105 -28.88198167 10.48773243 -16 4 C-10.62955056 1.6716038 -5.91991506 -0.27633356 0 0 Z " fill="#050201" transform="translate(202,80)"/>
<path d="M0 0 C21.57896028 -0.67111599 40.37142905 -0.17324444 57.66015625 14.41015625 C59.36050197 16.42776764 60.06438542 18.54865489 61 21 C58.09968361 24.01618644 55.17721528 27.0099304 52.25 30 C51.425 30.85851562 50.6 31.71703125 49.75 32.6015625 C48.55117188 33.81972656 48.55117188 33.81972656 47.328125 35.0625 C46.5949707 35.81660156 45.86181641 36.57070312 45.10644531 37.34765625 C43 39 43 39 39 39 C37.31002677 37.35697047 35.64783606 35.68528688 34 34 C28.7111802 29.88236407 23.10507733 27.96137357 16.76953125 25.953125 C10.24727162 23.70851097 6.26839845 19.92252343 3 14 C0.94529874 9.20843666 -0.06633397 5.21719408 0 0 Z " fill="#060301" transform="translate(209,78)"/>
<path d="M0 0 C154.44 0 308.88 0 468 0 C466.875 7.875 466.875 7.875 463.4375 11.9375 C462.79683594 12.70964844 462.15617187 13.48179688 461.49609375 14.27734375 C461.00238281 14.84582031 460.50867188 15.41429687 460 16 C460 13.33333333 460 10.66666667 460 8 C460.66 8 461.32 8 462 8 C462.33 7.34 462.66 6.68 463 6 C463.66 6 464.32 6 465 6 C464.67 5.01 464.34 4.02 464 3 C463.14297458 3.00037972 462.28594916 3.00075944 461.40295327 3.00115067 C410.37857218 3.02362791 359.35419163 3.04073626 308.32980657 3.05106533 C302.17543745 3.05231573 296.02106833 3.05361008 289.86669922 3.05493164 C288.64170022 3.05519395 287.41670123 3.05545626 286.15458106 3.05572652 C266.43311942 3.06005381 246.71166077 3.06792483 226.99020089 3.0771528 C206.68815684 3.08657176 186.38611433 3.09207287 166.08406818 3.09408849 C154.70858094 3.09532625 143.33309991 3.09827737 131.9576149 3.10573006 C39.68113548 3.16450945 39.68113548 3.16450945 0 2 C0 1.34 0 0.68 0 0 Z " fill="#FBCB2D" transform="translate(0,0)"/>
<path d="M0 0 C32.67 0 65.34 0 99 0 C98.06658186 5.60050881 97.78573896 6.85711324 94.4375 10.875 C93.79683594 11.65617188 93.15617187 12.43734375 92.49609375 13.2421875 C92.00238281 13.82226562 91.50867188 14.40234375 91 15 C91 12.33333333 91 9.66666667 91 7 C91.66 7 92.32 7 93 7 C93.33 6.34 93.66 5.68 94 5 C94.66 5 95.32 5 96 5 C95.505 3.515 95.505 3.515 95 2 C63.65 1.67 32.3 1.34 0 1 C0 0.67 0 0.34 0 0 Z " fill="#F1BF27" transform="translate(369,1)"/>
<path d="M0 0 C3.15546649 4.73319973 2.5327469 9.45571542 2 15 C1.00891266 19.76373 -0.47062986 24.38457939 -2 29 C-1.01 29.33 -0.02 29.66 1 30 C0.690625 31.0828125 0.690625 31.0828125 0.375 32.1875 C-0.05952211 35.44641585 0.58319331 37.08304504 2 40 C1.34 40 0.68 40 0 40 C0 39.34 0 38.68 0 38 C-0.99 38 -1.98 38 -3 38 C-3 38.66 -3 39.32 -3 40 C-4.65 39.67 -6.3 39.34 -8 39 C-8.2475 39.556875 -8.495 40.11375 -8.75 40.6875 C-10.21606015 43.39971127 -12.02989471 45.63587365 -14 48 C-14.66 47.67 -15.32 47.34 -16 47 C-15.20335938 46.07380859 -15.20335938 46.07380859 -14.390625 45.12890625 C-9.84236778 39.67597744 -6.39500901 34.68509795 -4 28 C-3.71382812 27.28972656 -3.42765625 26.57945312 -3.1328125 25.84765625 C-0.15134199 17.54213125 -0.27571266 8.72773188 0 0 Z " fill="#E3B11B" transform="translate(139,172)"/>
<path d="M0 0 C0.66 0.33 1.32 0.66 2 1 C1.67 1.66 1.34 2.32 1 3 C0.34 3 -0.32 3 -1 3 C-1 3.99 -1 4.98 -1 6 C-1.66 6 -2.32 6 -3 6 C-3 6.99 -3 7.98 -3 9 C-1.02 9 0.96 9 3 9 C3 9.33 3 9.66 3 10 C-1.62 10 -6.24 10 -11 10 C-11.66 8.68 -12.32 7.36 -13 6 C-12.14535156 5.65066406 -11.29070313 5.30132812 -10.41015625 4.94140625 C-9.30542969 4.48636719 -8.20070313 4.03132812 -7.0625 3.5625 C-5.96035156 3.11003906 -4.85820313 2.65757812 -3.72265625 2.19140625 C-1.13431084 1.25575392 -1.13431084 1.25575392 0 0 Z " fill="#D4A413" transform="translate(65,220)"/>
<path d="M0 0 C1 2 1 2 0.4375 3.9375 C-1.5350252 6.76764485 -3.88495996 7.64563476 -7 9 C-6.34 10.65 -5.68 12.3 -5 14 C-5.68707031 13.97679687 -6.37414062 13.95359375 -7.08203125 13.9296875 C-7.98308594 13.91164062 -8.88414062 13.89359375 -9.8125 13.875 C-10.70582031 13.85179687 -11.59914062 13.82859375 -12.51953125 13.8046875 C-15.25402714 13.81714173 -15.25402714 13.81714173 -18 16 C-18.99 16 -19.98 16 -21 16 C-21 15.34 -21 14.68 -21 14 C-19.85724609 13.48953125 -19.85724609 13.48953125 -18.69140625 12.96875 C-11.39607976 9.5442272 -5.71089319 5.68205029 0 0 Z " fill="#EEB90F" transform="translate(245,215)"/>
<path d="M0 0 C1.06990273 2.12508202 2.12224807 4.25572301 3.1484375 6.40234375 C7.41145473 15.21348447 11.69939569 19.83872681 20 25 C18.68 25.33 17.36 25.66 16 26 C16 25.34 16 24.68 16 24 C14.35 23.67 12.7 23.34 11 23 C11 22.34 11 21.68 11 21 C10.01 21.33 9.02 21.66 8 22 C7.608125 21.01 7.21625 20.02 6.8125 19 C5.58758207 16.07904186 4.10497239 13.60723256 2.3125 11 C-0.2283993 7.10496874 -0.47730598 4.58213738 0 0 Z " fill="#E9B317" transform="translate(41,133)"/>
<path d="M0 0 C-2.4755848 2.4755848 -4.69948753 2.92228164 -8 4 C-8.99 4.66 -9.98 5.32 -11 6 C-11 5.34 -11 4.68 -11 4 C-20.24 4 -29.48 4 -39 4 C-39 3.67 -39 3.34 -39 3 C-38.41210693 2.98541748 -37.82421387 2.97083496 -37.21850586 2.95581055 C-26.13088286 2.64983324 -15.5105996 2.1181836 -4.703125 -0.4765625 C-2 -1 -2 -1 0 0 Z " fill="#CEA116" transform="translate(223,231)"/>
<path d="M0 0 C1.32 0 2.64 0 4 0 C4.33 1.32 4.66 2.64 5 4 C4.01 3.67 3.02 3.34 2 3 C0.13064817 4.19117369 0.13064817 4.19117369 -1.6875 6 C-2.73550781 6.9590625 -2.73550781 6.9590625 -3.8046875 7.9375 C-4.52914062 8.618125 -5.25359375 9.29875 -6 10 C-7.42894569 11.34249702 -8.8660848 12.67634329 -10.3125 14 C-11.26576172 14.8971875 -11.26576172 14.8971875 -12.23828125 15.8125 C-12.81964844 16.204375 -13.40101563 16.59625 -14 17 C-14.99 16.67 -15.98 16.34 -17 16 C-16.52054932 15.55084229 -16.04109863 15.10168457 -15.54711914 14.63891602 C-13.38541794 12.6136163 -11.22395592 10.58806149 -9.0625 8.5625 C-7.93038086 7.50192383 -7.93038086 7.50192383 -6.77539062 6.41992188 C-6.05673828 5.74638672 -5.33808594 5.07285156 -4.59765625 4.37890625 C-3.93258057 3.7557251 -3.26750488 3.13254395 -2.58227539 2.49047852 C-1.71180457 1.6705087 -0.8455974 0.8455974 0 0 Z " fill="#180C00" transform="translate(157,186)"/>
<path d="M0 0 C-1.23553276 1.20254524 -2.48902339 2.38666232 -3.75 3.5625 C-4.79414063 4.55443359 -4.79414063 4.55443359 -5.859375 5.56640625 C-8 7 -8 7 -10.265625 6.71484375 C-10.83796875 6.47894531 -11.4103125 6.24304688 -12 6 C-11.67 3.69 -11.34 1.38 -11 -1 C-6.50114053 -1.86516528 -3.98352209 -2.30903272 0 0 Z " fill="#F1B90C" transform="translate(149,195)"/>
<path d="M0 0 C0 0.66 0 1.32 0 2 C-0.99 2.33 -1.98 2.66 -3 3 C-3.99 4.485 -3.99 4.485 -5 6 C-5.99 6 -6.98 6 -8 6 C-8 7.32 -8 8.64 -8 10 C-8.66 10 -9.32 10 -10 10 C-10 13.63 -10 17.26 -10 21 C-9.34 21 -8.68 21 -8 21 C-7.67 22.65 -7.34 24.3 -7 26 C-10.54204372 22.68647523 -11.8302407 20.73154491 -12.3125 15.8125 C-11.88740235 10.62630862 -10.40451909 6.18982989 -6.46875 2.60546875 C-4.31325707 1.11035968 -2.67231468 0 0 0 Z " fill="#DFAF22" transform="translate(201,107)"/>
<path d="M0 0 C3.07469025 0.43924146 5.88031785 0.95744635 8.8125 2 C12.84709134 3.26575415 16.80065684 3.6453888 21 4 C20.83886719 4.61617187 20.67773438 5.23234375 20.51171875 5.8671875 C19.94918009 7.98158883 19.94918009 7.98158883 19.8125 10.125 C19 12 19 12 15.9375 13.25 C14.968125 13.4975 13.99875 13.745 13 14 C15.97 9.545 15.97 9.545 19 5 C17.865625 5.061875 16.73125 5.12375 15.5625 5.1875 C10.71742266 5.1961365 6.40424373 3.99196086 2 2 C1.34 1.34 0.68 0.68 0 0 Z " fill="#E4B31E" transform="translate(58,203)"/>
<path d="M0 0 C2.35686917 2.26259441 2.36741986 4.31369098 2.5625 7.5 C2.2325 8.49 1.9025 9.48 1.5625 10.5 C-0.9125 6.54 -0.9125 6.54 -3.4375 2.5 C-7.44871121 3.26456452 -7.44871121 3.26456452 -10.4375 5.5 C-10.4375 4.18 -10.4375 2.86 -10.4375 1.5 C-3.22937817 -0.66243655 -3.22937817 -0.66243655 0 0 Z " fill="#EBB714" transform="translate(45.4375,184.5)"/>
<path d="M0 0 C0 0.33 0 0.66 0 1 C-1.41152344 1.07347656 -1.41152344 1.07347656 -2.8515625 1.1484375 C-4.71941406 1.26058594 -4.71941406 1.26058594 -6.625 1.375 C-7.85476562 1.44460937 -9.08453125 1.51421875 -10.3515625 1.5859375 C-13.84224829 1.9820967 -16.70994613 2.81326502 -20 4 C-20.66 4 -21.32 4 -22 4 C-22.33 4.66 -22.66 5.32 -23 6 C-24.65 5.67 -26.3 5.34 -28 5 C-26.68571019 2.37142038 -25.7572559 2.29719032 -23 1.375 C-15.49654074 -0.80165947 -7.73066708 -0.24214386 0 0 Z " fill="#E3B21C" transform="translate(107,104)"/>
<path d="M0 0 C2.64 0 5.28 0 8 0 C8 0.66 8 1.32 8 2 C10.31 2 12.62 2 15 2 C15 2.66 15 3.32 15 4 C16.051875 4.144375 17.10375 4.28875 18.1875 4.4375 C21.15460549 4.87526966 24.06794366 5.37804866 27 6 C27 6.99 27 7.98 27 9 C25.88625 8.608125 24.7725 8.21625 23.625 7.8125 C15.85257338 5.20917514 7.90488728 3.15742878 0 1 C0 0.67 0 0.34 0 0 Z " fill="#D6A61E" transform="translate(210,139)"/>
<path d="M0 0 C0.53625 0.28875 1.0725 0.5775 1.625 0.875 C4.06360103 2.1003036 4.06360103 2.1003036 7.0625 2.9375 C9.88809686 3.9595244 11.36267492 4.49585576 13 7 C12.625 8.875 12.625 8.875 12 11 C12.38567131 13.68149993 12.38567131 13.68149993 13 16 C11.58637573 14.13996807 10.18967486 12.27506114 8.86328125 10.3515625 C6.19408857 6.49512639 3.41366199 3.21859559 0 0 Z " fill="#E9B716" transform="translate(243,151)"/>
<path d="M0 0 C0.99 0.66 1.98 1.32 3 2 C5.02921669 2.27401018 5.02921669 2.27401018 7.23046875 2.1953125 C8.03291016 2.18886719 8.83535156 2.18242187 9.66210938 2.17578125 C10.91217773 2.15064453 10.91217773 2.15064453 12.1875 2.125 C13.03248047 2.11597656 13.87746094 2.10695312 14.74804688 2.09765625 C16.83215243 2.07410703 18.91611217 2.03823647 21 2 C17.57905758 4.28062828 16.31812778 4.21925007 12.3125 4.125 C10.82169922 4.09792969 10.82169922 4.09792969 9.30078125 4.0703125 C8.54152344 4.04710937 7.78226563 4.02390625 7 4 C7 4.66 7 5.32 7 6 C0.375 5.25 0.375 5.25 -3 3 C-2.01 2.01 -1.02 1.02 0 0 Z " fill="#351F00" transform="translate(51,227)"/>
<path d="M0 0 C1.65 0.33 3.3 0.66 5 1 C1.73279209 5.38894929 -1.54898478 9.75259665 -5 14 C-4.74279326 12.41439607 -4.46861201 10.83154076 -4.1875 9.25 C-3.96126953 7.92742187 -3.96126953 7.92742187 -3.73046875 6.578125 C-2.94585752 3.8089089 -1.85404641 2.1740599 0 0 Z " fill="#E5B316" transform="translate(50,92)"/>
<path d="M0 0 C0.66 0 1.32 0 2 0 C2.66 3.3 3.32 6.6 4 10 C3.34 9.67 2.68 9.34 2 9 C2 8.01 2 7.02 2 6 C1.34 6 0.68 6 0 6 C-0.33 6.66 -0.66 7.32 -1 8 C-1.99 8 -2.98 8 -4 8 C-4 6.02 -4 4.04 -4 2 C-2.68 2 -1.36 2 0 2 C0 1.34 0 0.68 0 0 Z " fill="#EFB50A" transform="translate(207,78)"/>
<path d="M0 0 C0.99 0.33 1.98 0.66 3 1 C1.52869627 5.3573226 -0.83080615 8.71934134 -3.625 12.3125 C-4.04523438 12.86228516 -4.46546875 13.41207031 -4.8984375 13.97851562 C-5.92720039 15.32292168 -6.9629009 16.66201413 -8 18 C-9.09658936 14.71023192 -8.79953138 13.28696233 -8 10 C-7.1028125 9.87625 -7.1028125 9.87625 -6.1875 9.75 C-3.30531281 8.76182154 -2.52329844 7.61136876 -1 5 C-0.28566879 2.35065178 -0.28566879 2.35065178 0 0 Z " fill="#F1C235" transform="translate(338,177)"/>
<path d="M0 0 C0.33 0.99 0.66 1.98 1 3 C1.99 3.33 2.98 3.66 4 4 C3.79375 4.721875 3.5875 5.44375 3.375 6.1875 C2.94047789 9.44641585 3.58319331 11.08304504 5 14 C4.34 14 3.68 14 3 14 C3 13.34 3 12.68 3 12 C1.68 11.67 0.36 11.34 -1 11 C-0.34 11 0.32 11 1 11 C1 9.35 1 7.7 1 6 C0.34 6 -0.32 6 -1 6 C-1 6.99 -1 7.98 -1 9 C-1.66 9 -2.32 9 -3 9 C-2.01 6.03 -1.02 3.06 0 0 Z " fill="#E7B41B" transform="translate(136,198)"/>
<path d="M0 0 C0.66 0.33 1.32 0.66 2 1 C-1.63 5.95 -5.26 10.9 -9 16 C-9.33 14.68 -9.66 13.36 -10 12 C-10.33 11.34 -10.66 10.68 -11 10 C-9.68 10 -8.36 10 -7 10 C-6.34 8.88625 -5.68 7.7725 -5 6.625 C-4.62875 5.99851562 -4.2575 5.37203125 -3.875 4.7265625 C-2.84931652 3.02527333 -2.84931652 3.02527333 -3 1 C-2.01 0.67 -1.02 0.34 0 0 Z " fill="#F0C137" transform="translate(271,272)"/>
<path d="M0 0 C1.32 0 2.64 0 4 0 C6.125 4.625 6.125 4.625 5 8 C2.36 6.35 -0.28 4.7 -3 3 C-2.01 2.67 -1.02 2.34 0 2 C0 1.34 0 0.68 0 0 Z " fill="#EDB70F" transform="translate(122,146)"/>
<path d="M0 0 C0.99 0.33 1.98 0.66 3 1 C1.52351062 2.33629746 0.0437367 3.66896671 -1.4375 5 C-2.26121094 5.7425 -3.08492187 6.485 -3.93359375 7.25 C-6 9 -6 9 -7 9 C-7 6.69 -7 4.38 -7 2 C-3.98968256 1.06576355 -3.13349732 0.95550089 0 2 C0 1.34 0 0.68 0 0 Z " fill="#EAB817" transform="translate(177,87)"/>
<path d="M0 0 C0.99 0.33 1.98 0.66 3 1 C0.36 4.63 -2.28 8.26 -5 12 C-6.36682561 9.26634878 -5.84683011 7.89333621 -5 5 C-3.5625 3.1875 -3.5625 3.1875 -2 2 C-1.34 2 -0.68 2 0 2 C0 1.34 0 0.68 0 0 Z " fill="#F3C429" transform="translate(289,246)"/>
<path d="M0 0 C1.33897583 0.95043374 2.67105427 1.91059147 4 2.875 C5.11375 3.67550781 5.11375 3.67550781 6.25 4.4921875 C6.8275 4.98976563 7.405 5.48734375 8 6 C8 6.66 8 7.32 8 8 C9.32 8.33 10.64 8.66 12 9 C5.25 9.125 5.25 9.125 3 8 C1.47479885 5.39818627 0.69113413 2.91744232 0 0 Z " fill="#DEAD17" transform="translate(240,109)"/>
<path d="M0 0 C3.465 1.485 3.465 1.485 7 3 C7 3.66 7 4.32 7 5 C6.01 5 5.02 5 4 5 C4 5.66 4 6.32 4 7 C2.35 7.33 0.7 7.66 -1 8 C-0.67 5.36 -0.34 2.72 0 0 Z " fill="#EFB60C" transform="translate(178,158)"/>
<path d="M0 0 C4.82034262 0.41317222 6.90992611 2.38019915 10 6 C10 6.66 10 7.32 10 8 C11.65 6.68 13.3 5.36 15 4 C15.66 4.33 16.32 4.66 17 5 C15.25 7 15.25 7 13 9 C9 9 9 9 6.5 6.75 C5.675 5.8425 4.85 4.935 4 4 C3.236875 3.236875 2.47375 2.47375 1.6875 1.6875 C1.130625 1.130625 0.57375 0.57375 0 0 Z " fill="#1B0800" transform="translate(239,108)"/>
<path d="M0 0 C0 3.66184524 -0.919642 5.02806 -3 8 C-5 9.875 -5 9.875 -7 11 C-7.99 10.67 -8.98 10.34 -10 10 C-6.7 6.7 -3.4 3.4 0 0 Z " fill="#E4B41B" transform="translate(150,100)"/>
<path d="M0 0 C-0.66 1.32 -1.32 2.64 -2 4 C-2.66 4 -3.32 4 -4 4 C-4 4.66 -4 5.32 -4 6 C-5.875 8.125 -5.875 8.125 -8 10 C-8.66 10 -9.32 10 -10 10 C-10 10.99 -10 11.98 -10 13 C-10.99 13.33 -11.98 13.66 -13 14 C-11.6145759 9.76090342 -9.67287988 7.29341975 -6.5 4.1875 C-5.7059375 3.39730469 -4.911875 2.60710937 -4.09375 1.79296875 C-2 0 -2 0 0 0 Z " fill="#190700" transform="translate(61,89)"/>
<path d="M0 0 C-3.12752591 1.64528614 -6.3053057 2.91702499 -9.625 4.125 C-10.58664063 4.47820312 -11.54828125 4.83140625 -12.5390625 5.1953125 C-15 6 -15 6 -17 6 C-17.33 5.01 -17.66 4.02 -18 3 C-16.12743583 2.49095343 -14.25180659 1.99317545 -12.375 1.5 C-11.33085937 1.2215625 -10.28671875 0.943125 -9.2109375 0.65625 C-6.04312582 0.00881404 -3.22258533 -0.1161292 0 0 Z " fill="#E9B61C" transform="translate(201,79)"/>
<path d="M0 0 C0.99 0 1.98 0 3 0 C1.42903279 5.02709507 -1.61993049 9.02866469 -5 13 C-5.33 13 -5.66 13 -6 13 C-6.3125 10.75 -6.3125 10.75 -6 8 C-4.37064759 6.62131719 -2.70250393 5.28725907 -1 4 C-0.13034494 1.87053397 -0.13034494 1.87053397 0 0 Z " fill="#F2C134" transform="translate(354,156)"/>
<path d="M0 0 C1.07965525 2.15431209 2.15339947 4.31122392 3.21875 6.47265625 C3.6415625 7.32730469 4.064375 8.18195313 4.5 9.0625 C4.9228125 9.91972656 5.345625 10.77695313 5.78125 11.66015625 C7.03369882 14.16710574 7.03369882 14.16710574 9 17 C8.01 17 7.02 17 6 17 C2.65891999 12.95981323 -0.40809985 8.24820917 -0.375 2.875 C-0.189375 1.451875 -0.189375 1.451875 0 0 Z " fill="#DAAE20" transform="translate(41,133)"/>
<path d="M0 0 C1.32 0.33 2.64 0.66 4 1 C2.02 4.96 0.04 8.92 -2 13 C-2.33 13 -2.66 13 -3 13 C-3 11.02 -3 9.04 -3 7 C-2.34 7 -1.68 7 -1 7 C-1.020625 6.030625 -1.04125 5.06125 -1.0625 4.0625 C-1 1 -1 1 0 0 Z " fill="#ECB618" transform="translate(164,99)"/>
<path d="M0 0 C0.66 0.33 1.32 0.66 2 1 C-2.455 6.94 -2.455 6.94 -7 13 C-9 10 -9 10 -9 8 C-7.68 8 -6.36 8 -5 8 C-5 7.01 -5 6.02 -5 5 C-4.34 4.67 -3.68 4.34 -3 4 C-2.67 3.01 -2.34 2.02 -2 1 C-1.34 0.67 -0.68 0.34 0 0 Z " fill="#EFC02F" transform="translate(449,28)"/>
<path d="M0 0 C1 2 1 2 0.4375 3.9375 C-1.52700009 6.75613056 -3.93115271 7.56351829 -7 9 C-7.33 9.66 -7.66 10.32 -8 11 C-9.32 10.67 -10.64 10.34 -12 10 C-11.38511719 9.52949219 -10.77023438 9.05898437 -10.13671875 8.57421875 C-9.32847656 7.95160156 -8.52023438 7.32898438 -7.6875 6.6875 C-6.88699219 6.07261719 -6.08648437 5.45773438 -5.26171875 4.82421875 C-3.37298626 3.30083693 -1.66922364 1.75565593 0 0 Z " fill="#E2B421" transform="translate(245,215)"/>
<path d="M0 0 C0.515625 0.680625 1.03125 1.36125 1.5625 2.0625 C4.50071413 5.60342473 7.70787019 8.79109819 11 12 C10.34 12.66 9.68 13.32 9 14 C7.82739389 12.71372289 6.6620717 11.42080217 5.5 10.125 C4.8503125 9.40570313 4.200625 8.68640625 3.53125 7.9453125 C2 6 2 6 2 4 C1.34 4 0.68 4 0 4 C0 2.68 0 1.36 0 0 Z " fill="#D9AC1D" transform="translate(20,208)"/>
<path d="M0 0 C2.97 0.495 2.97 0.495 6 1 C2.97727468 4.25524265 -0.25718301 6.61820737 -4 9 C-3.625 6.5625 -3.625 6.5625 -3 4 C-2.34 3.67 -1.68 3.34 -1 3 C-0.34 3.33 0.32 3.66 1 4 C0.67 2.68 0.34 1.36 0 0 Z " fill="#E4B019" transform="translate(59,84)"/>
<path d="M0 0 C0 3.21812786 -0.05758039 4.4664092 -2 7 C-5.625 7.75 -5.625 7.75 -9 8 C-9 7.01 -9 6.02 -9 5 C-8.2575 4.9175 -7.515 4.835 -6.75 4.75 C-3.48778646 3.8603054 -2.19045122 2.51496251 0 0 Z " fill="#E4B31C" transform="translate(139,111)"/>
<path d="M0 0 C1.32 0 2.64 0 4 0 C4 0.66 4 1.32 4 2 C2.56570999 2.67354499 1.12742943 3.33859701 -0.3125 4 C-1.51326172 4.556875 -1.51326172 4.556875 -2.73828125 5.125 C-5 6 -5 6 -8 6 C-8 5.34 -8 4.68 -8 4 C-6.865625 3.525625 -5.73125 3.05125 -4.5625 2.5625 C-1.24259834 1.36377917 -1.24259834 1.36377917 0 0 Z " fill="#E7B118" transform="translate(84,221)"/>
<path d="M0 0 C1.27609323 0.90933009 2.54565553 1.82782853 3.8125 2.75 C4.87404297 3.51570312 4.87404297 3.51570312 5.95703125 4.296875 C8.02977691 6.02482358 9.47375854 7.78526476 11 10 C10.01 10 9.02 10 8 10 C8 9.34 8 8.68 8 8 C6.68 7.67 5.36 7.34 4 7 C4 6.34 4 5.68 4 5 C2.68 4.34 1.36 3.68 0 3 C0 2.01 0 1.02 0 0 Z " fill="#1E0A00" transform="translate(122,150)"/>
<path d="M0 0 C5.95507399 0.3916035 10.62819824 1.37124595 16 4 C16 4.66 16 5.32 16 6 C10.63904723 4.41078475 5.29156027 2.81027062 0 1 C0 0.67 0 0.34 0 0 Z " fill="#D9AA1E" transform="translate(103,142)"/>
<path d="M0 0 C0.33 1.32 0.66 2.64 1 4 C-6.75 3.25 -6.75 3.25 -9 1 C-5.846632 0.29925156 -3.27275026 0 0 0 Z " fill="#D9A718" transform="translate(189,204)"/>
<path d="M0 0 C0.66 0.33 1.32 0.66 2 1 C-0.475 4.465 -0.475 4.465 -3 8 C-5 4.25 -5 4.25 -5 2 C-2.625 0.9375 -2.625 0.9375 0 0 Z " fill="#F3BF24" transform="translate(375,129)"/>
<path d="M0 0 C0.33 0 0.66 0 1 0 C1.24954005 1.43410368 1.47392642 2.87260072 1.6875 4.3125 C1.81511719 5.11300781 1.94273438 5.91351563 2.07421875 6.73828125 C2 9 2 9 0.58203125 10.60546875 C0.05996094 11.06566406 -0.46210937 11.52585938 -1 12 C-1.33 12.99 -1.66 13.98 -2 15 C-2.66 15 -3.32 15 -4 15 C-3.71125 14.38125 -3.4225 13.7625 -3.125 13.125 C-1.58288195 8.84133876 -0.81601453 4.47071788 0 0 Z " fill="#392301" transform="translate(108,190)"/>
<path d="M0 0 C0.1875 2.375 0.1875 2.375 0 5 C-3 7 -3 7 -5.1875 6.625 C-5.785625 6.41875 -6.38375 6.2125 -7 6 C-6.02388578 4.99702025 -5.04402202 3.99768827 -4.0625 3 C-3.51722656 2.443125 -2.97195313 1.88625 -2.41015625 1.3125 C-1 0 -1 0 0 0 Z " fill="#DDA812" transform="translate(263,106)"/>
<path d="M0 0 C0.66 0.33 1.32 0.66 2 1 C0.515 2.485 0.515 2.485 -1 4 C-0.67 4.66 -0.34 5.32 0 6 C-1.65 6 -3.3 6 -5 6 C-5.33 5.01 -5.66 4.02 -6 3 C-5.01 3 -4.02 3 -3 3 C-3 2.34 -3 1.68 -3 1 C-2.01 0.67 -1.02 0.34 0 0 Z " fill="#EBB413" transform="translate(60,223)"/>
<path d="M0 0 C1.32 0 2.64 0 4 0 C4 0.66 4 1.32 4 2 C3.34 2 2.68 2 2 2 C2.33 3.65 2.66 5.3 3 7 C1.35 5.35 -0.3 3.7 -2 2 C-1.34 1.34 -0.68 0.68 0 0 Z " fill="#1E1102" transform="translate(50,146)"/>
<path d="M0 0 C0.99 0.33 1.98 0.66 3 1 C3.33 2.98 3.66 4.96 4 7 C-0.875 4.25 -0.875 4.25 -2 2 C-1.34 2 -0.68 2 0 2 C0 1.34 0 0.68 0 0 Z " fill="#ECB414" transform="translate(262,85)"/>
<path d="M0 0 C3.68266103 0.59950296 7.34543185 1.24758891 11 2 C11 2.99 11 3.98 11 5 C9.53932801 4.54917531 8.08151968 4.08906463 6.625 3.625 C5.81289062 3.36976563 5.00078125 3.11453125 4.1640625 2.8515625 C2 2 2 2 0 0 Z " fill="#E2B21F" transform="translate(226,143)"/>
<path d="M0 0 C0.99 0.66 1.98 1.32 3 2 C1.61410019 5.09162264 0.50816459 6.49183541 -2 9 C-1.34 6.03 -0.68 3.06 0 0 Z " fill="#F1C024" transform="translate(456,14)"/>
<path d="M0 0 C0 0.66 0 1.32 0 2 C-3.4019487 4.09350689 -6.05272412 4.17942163 -10 4 C-6.74659338 1.32755885 -4.23938937 0 0 0 Z " fill="#F0B819" transform="translate(102,231)"/>
<path d="M0 0 C0.66 0 1.32 0 2 0 C4.1875 2.8125 4.1875 2.8125 6 6 C5.67 6.99 5.34 7.98 5 9 C0.57142857 3.85714286 0.57142857 3.85714286 0 0 Z " fill="#2F1A00" transform="translate(19,204)"/>
<path d="M0 0 C0 3 0 3 -1 6 C-3.5625 7.1875 -3.5625 7.1875 -6 8 C-6.66 7.34 -7.32 6.68 -8 6 C-7.05125 5.38125 -6.1025 4.7625 -5.125 4.125 C-2.05554891 2.18029031 -2.05554891 2.18029031 0 0 Z " fill="#392303" transform="translate(221,199)"/>
<path d="M0 0 C1.32 0.66 2.64 1.32 4 2 C2.35 4.31 0.7 6.62 -1 9 C-2.60031344 5.79937313 -1.03173691 3.27728194 0 0 Z " fill="#F2C434" transform="translate(387,109)"/>
<path d="M0 0 C0.66 0.33 1.32 0.66 2 1 C-0.475 4.465 -0.475 4.465 -3 8 C-4.03348696 4.89953913 -4.17755913 3.94389782 -3 1 C-2.01 0.67 -1.02 0.34 0 0 Z " fill="#F6BF2E" transform="translate(405,88)"/>
<path d="M0 0 C4.43458973 1.3937282 6.87378374 3.60582235 10 7 C6.433255 7 5.89456323 6.36308045 3.3125 4.0625 C2.68988281 3.51722656 2.06726563 2.97195312 1.42578125 2.41015625 C0.95527344 1.94480469 0.48476562 1.47945313 0 1 C0 0.67 0 0.34 0 0 Z " fill="#DCAD1E" transform="translate(140,86)"/>
<path d="M0 0 C1.38157895 4.14473684 1.38157895 4.14473684 0 7 C-3.0625 8.25 -3.0625 8.25 -6 9 C-4.02 6.03 -2.04 3.06 0 0 Z " fill="#D3A416" transform="translate(77,208)"/>
<path d="M0 0 C0.66 0.33 1.32 0.66 2 1 C0.35 2.98 -1.3 4.96 -3 7 C-3.33 6.01 -3.66 5.02 -4 4 C-3.34 3.01 -2.68 2.02 -2 1 C-1.34 1.33 -0.68 1.66 0 2 C0 1.34 0 0.68 0 0 Z " fill="#F0C227" transform="translate(259,288)"/>
<path d="M0 0 C0.99 0 1.98 0 3 0 C1.63016497 3.16115776 1.0109362 3.9927092 -2 6 C-1.125 1.125 -1.125 1.125 0 0 Z " fill="#241100" transform="translate(124,214)"/>
<path d="M0 0 C1 3 1 3 -0.25 5.6875 C-0.8275 6.450625 -1.405 7.21375 -2 8 C-2.99 8 -3.98 8 -5 8 C-3.35 5.36 -1.7 2.72 0 0 Z " fill="#311D00" transform="translate(103,205)"/>
<path d="M0 0 C1.32 0 2.64 0 4 0 C4.33 1.32 4.66 2.64 5 4 C4.01 3.67 3.02 3.34 2 3 C1.01 3.495 1.01 3.495 0 4 C-0.66 3.34 -1.32 2.68 -2 2 C-1.34 1.34 -0.68 0.68 0 0 Z " fill="#372301" transform="translate(157,186)"/>
<path d="M0 0 C0.66 0.33 1.32 0.66 2 1 C-0.475 4.465 -0.475 4.465 -3 8 C-4.24546405 5.50907189 -3.7767578 4.58919267 -3 2 C-2.01 2 -1.02 2 0 2 C0 1.34 0 0.68 0 0 Z " fill="#F2C232" transform="translate(345,170)"/>
<path d="M0 0 C2.97 0 5.94 0 9 0 C9.33 0.99 9.66 1.98 10 3 C6.7 2.34 3.4 1.68 0 1 C0 0.67 0 0.34 0 0 Z " fill="#D4A41C" transform="translate(91,139)"/>
<path d="M0 0 C-3.4019487 2.09350689 -6.05272412 2.17942163 -10 2 C-6.19832777 -0.53444815 -4.31588991 -1.33941411 0 0 Z " fill="#311E02" transform="translate(82,81)"/>
</svg>
